<svg xmlns="http://www.w3.org/2000/svg" width="198" height="50" fill="none" viewBox="0 0 198 50"><path fill="#E9DBBF" d="M25.3985 0C11.5079 0 0.207031 11.2151 0.207031 25.0003C0.207031 38.7856 11.5079 50 25.3985 50C39.2892 50 50.5897 38.7852 50.5897 25.0003C50.5897 11.2154 39.2889 0 25.3985 0ZM25.3985 48.2568C12.4766 48.2568 1.96356 37.8238 1.96356 25.0003C1.96356 12.1768 12.4763 1.7432 25.3985 1.7432C38.3208 1.7432 48.8332 12.1762 48.8332 25.0003C48.8332 37.8245 38.3205 48.2568 25.3985 48.2568Z"/><path fill="#E9DBBF" d="M36.2354 27.9147 29.7247 29.3535C29.3762 29.4302 29.0898 29.6759 28.9624 30.0068L27.061 34.9453C26.478 36.4598 24.3187 36.4598 23.7356 34.9453L21.8342 30.0068C21.7068 29.6759 21.4205 29.4305 21.0722 29.3535L14.5613 27.9147C14.4485 27.8898 14.3823 28.0366 14.476 28.1033L18.9992 31.3344C19.1678 31.4549 19.2973 31.6216 19.3712 31.8141L21.1692 36.484C22.6525 40.3362 28.1442 40.3362 29.6274 36.484L31.4254 31.8141C31.4997 31.6216 31.6288 31.4549 31.7974 31.3344L36.3207 28.1033C36.4147 28.0362 36.3484 27.8898 36.2354 27.9147ZM37.4869 13.7046C37.4223 13.596 37.2547 13.6415 37.2547 13.7673L37.2531 20.2568C37.2531 20.3683 37.1778 20.4659 37.0694 20.4955L26.7122 23.301C25.8522 23.534 24.945 23.534 24.0853 23.301L13.7278 20.4955C13.6194 20.4659 13.5441 20.3683 13.5441 20.2568L13.5424 13.7673C13.5424 13.6415 13.3749 13.596 13.3103 13.7046L9.57779 19.9962C9.37374 20.3398 9.34932 20.76 9.51189 21.1246L10.3636 23.0354C10.5154 23.376 10.8138 23.6306 11.1761 23.7289L24.0863 27.2229C24.9457 27.4553 25.8522 27.4553 26.7116 27.2229L39.6218 23.7289C39.984 23.631 40.2824 23.3763 40.4343 23.0354L41.286 21.1246C41.4485 20.76 41.4241 20.3398 41.2201 19.9962L37.4876 13.7046H37.4869ZM62.6932 38.0754H61.4739V47.4978H63.0585V43.5055H66.136V42.1849H63.0585V39.3956H66.5796V38.0754H63.0585 62.6932ZM72.1849 38.0754H70.6003V47.4978H72.1849V38.0754ZM81.5985 44.6438 78.2209 38.0754H76.6885V47.4978H78.2209V40.9752L81.5724 47.4978H83.1242V38.0754H81.5985V44.6438ZM91.0644 38.0753H90.0341L87.0215 47.4977H88.6777L89.2935 45.3166H92.1877L92.8052 47.4977H94.4681L91.4424 38.0753H91.0641 91.0644ZM89.6665 43.9964 90.7386 40.1996 91.8137 43.9964H89.6661 89.6665ZM103.132 44.6438 99.7543 38.0753H98.2219V47.4977H99.7543V40.9751L103.106 47.4977H104.658V38.0753H103.132V44.6438ZM110.606 40.7643C110.673 40.43 110.775 40.1518 110.912 39.9297 111.049 39.7073 111.225 39.54 111.44 39.4281 111.655 39.3156 111.913 39.2598 112.213 39.2598 112.574 39.2598 112.862 39.3222 113.077 39.4474 113.292 39.5725 113.453 39.7767 113.56 40.0592 113.666 40.3417 113.73 40.7182 113.752 41.1883H115.33C115.291 40.4938 115.15 39.9052 114.906 39.4215 114.663 38.9388 114.317 38.5716 113.869 38.3213 113.422 38.0713 112.87 37.9459 112.213 37.9459 111.7 37.9459 111.241 38.0358 110.834 38.2148 110.428 38.3937 110.083 38.6556 109.8 39.0009 109.518 39.3458 109.302 39.7664 109.152 40.2627 109.002 40.7587 108.927 41.322 108.927 41.9518V43.621C108.927 44.2514 109 44.8141 109.145 45.3104 109.291 45.8064 109.503 46.2263 109.781 46.5689 110.059 46.9118 110.397 47.1741 110.795 47.3553 111.193 47.5366 111.644 47.6272 112.148 47.6272 112.813 47.6272 113.377 47.5024 113.84 47.2518 114.303 47.0018 114.659 46.6383 114.906 46.1616 115.154 45.6849 115.293 45.1059 115.324 44.4237H113.746C113.72 44.8987 113.652 45.2742 113.544 45.5501 113.435 45.8263 113.269 46.0221 113.045 46.1387 112.821 46.2552 112.522 46.3136 112.148 46.3136 111.835 46.3136 111.574 46.2545 111.366 46.136 111.157 46.0172 110.99 45.8422 110.864 45.6115 110.738 45.3808 110.646 45.0992 110.59 44.7673 110.533 44.4346 110.505 44.0532 110.505 43.6213V41.9392C110.505 41.4907 110.538 41.099 110.606 40.7647L110.606 40.7643ZM120.968 46.1842V43.2914H124.118V41.997H120.968V39.3956H124.633V38.0754H120.968 120.551 119.384V47.4978H120.551 120.968 124.672V46.1842H120.968Z"/><path fill="#fff" d="M95.8549 28.5464V25.5613H85.3943V6.7486H82.1509V28.5464H95.8549ZM139.362 28.5464 133.877 17.648 139.362 6.7486H135.569L130.988 16.1548H127.97L123.388 6.7486H119.595L125.08 17.6473 119.595 28.5464H123.388L127.97 19.1402H130.988L135.569 28.5464H139.362ZM146.137 6.74792H142.895V28.5464H146.137V6.74792ZM164.147 28.5464 167.755 24.9654V6.7486H164.511V23.8722L162.809 25.5613H155.359L153.657 23.8722V6.7486H150.413V24.9654L154.021 28.5464H164.147ZM197.57 28.5464V6.7486H190.187L185.864 21.3004 183.715 21.31 179.388 6.7486H172.03V28.5464H175.274V9.73404H177.031L181.354 24.2865 188.224 24.2792 192.544 9.73404H194.327V28.5464H197.57ZM116.063 9.7347H104.149L110.469 17.6463 104.149 25.5619H116.063V28.545H99.6611V25.5619L106.343 17.647 99.6611 9.7347V6.74792H116.063V9.7347ZM77.8754 9.7347H65.962L72.2817 17.6463 65.962 25.5619H77.8754V28.545H61.4739V25.5619L68.1554 17.647 61.4739 9.7347V6.74792H77.8754V9.7347Z"/></svg>